<svg xmlns="http://www.w3.org/2000/svg">
	<!-- Alert icons -->
	<symbol id="icon-star" viewBox="0 0 120 120" fill="currentColor">
		<path d="M60 5.053c2.799 0 18.692 34.273 18.692 34.273s37.506 4.524 38.371 7.186c.865 2.662-26.819 28.368-26.819 28.368s7.288 37.07 5.023 38.714C93.003 115.24 60 96.854 60 96.854s-33.003 18.385-35.267 16.74c-2.265-1.645 5.023-38.714 5.023-38.714S2.072 49.174 2.937 46.512c.865-2.662 38.371-7.186 38.371-7.186S57.201 5.053 60 5.053z"/>
	</symbol>
	<symbol id="icon-euro" viewBox="0 0 120 120" fill="currentColor">
		<path d="M63.042 116.527c-7.18 0-13.597-1.375-19.097-4.278-5.5-2.75-9.778-6.722-12.68-11.764-3.056-5.041-4.584-11-4.584-17.722v-3.36H16.445v-12.68h10.236V53.277H16.445v-12.68h10.236v-3.361c0-6.723 1.528-12.68 4.583-17.722 2.903-5.042 7.18-9.014 12.834-11.917 5.5-2.75 11.916-4.125 19.096-4.125 10.542 0 19.25 2.903 25.82 8.861 6.569 5.958 10.083 13.75 10.54 23.68H80.306c-.153-4.736-1.833-8.555-4.889-11.305-3.055-2.75-7.18-4.125-12.222-4.125-5.347 0-9.624 1.528-12.833 4.43-3.055 2.903-4.583 7.028-4.583 12.223v3.36h23.68v12.68h-23.68v13.445h23.68v12.68h-23.68v3.361c0 5.195 1.528 9.32 4.583 12.222 3.056 2.903 7.333 4.43 12.68 4.43 5.195 0 9.32-1.374 12.375-4.124 3.056-2.75 4.736-6.57 4.89-11.305h19.249c-.458 9.93-3.972 17.874-10.542 23.68-6.569 5.958-15.277 8.86-25.971 8.86z" fill-rule="nonzero"/>
	</symbol>
	<symbol id="icon-heart" viewBox="0 0 120 120" fill="currentColor">
		<path d="M60 20.277c12.299-18.693 36.895-18.693 49.192-7.01 12.299 11.683 12.299 35.05 0 58.416-8.608 17.525-30.745 35.05-49.192 46.733-18.447-11.683-40.584-29.208-49.192-46.733-12.299-23.366-12.299-46.733 0-58.416C23.105 1.584 47.7 1.584 60 20.277z"/>
	</symbol>
	<symbol id="icon-bits" viewBox="0 0 120 120" fill="currentColor">
		<path d="M60 44.694L13.456 78.738l-.413-.338L60 3.182v41.512z" fill-opacity=".35"/>
		<path d="M60 116.818l-46.544-38.08L60 44.694v72.124zM106.479 78.48L60 44.694V3.182l46.479 75.298z" fill-opacity=".7"/>
		<path d="M106.479 78.48l.478.774L60 116.818V44.694l46.479 33.786z"/>
	</symbol>
	<symbol id="icon-parachute" viewBox="0 0 120 120" fill="currentColor">
		<path d="M56.496 53.113s2.999 1.741 6.671.282v39.443l15.24-40.209-.017-.012h.017s1.903 2.93 6.654 1.279L69.953 93.757l29.625-42.1-.037-.023.037-.004s3.093 2.237 8.541-.314l-46.312 65.61h-3.538L11.83 51.244l.001-.013c.045.046 2.78 2.805 8.62.377l.009-.004 29.274 41.601-14.947-39.436c.351.065 4.677.807 6.708-1.157l.257-.165-.257.2 15.001 39.578V53.113z" fill="#fff" fill-opacity=".7"/><path d="M11.831 51.23c.003-12.86 5.012-24.952 14.108-34.047C35.037 8.085 47.133 3.074 60 3.074s24.963 5.01 34.06 14.109c9.1 9.098 14.11 21.194 14.11 34.061l-.05.072c-5.448 2.55-8.542.314-8.542.314l-.037.004c-2.074-1.457-4.158-2.15-6.225-2.072-4.388.172-7.726 3.723-8.243 4.305l-.012.03c-4.75 1.65-6.654-1.28-6.654-1.28h-.017c-2.479-2.113-4.977-3.143-7.446-3.057-3.643.124-6.572 2.589-7.777 3.775v.06c-3.671 1.459-6.67-.282-6.67-.282v-.037c-2.666-2.436-5.354-3.615-8.015-3.514-2.851.112-5.258 1.65-6.73 2.885l-.257.165c-2.031 1.964-6.357 1.222-6.708 1.157l-.009-.023c-2.879-2.873-5.794-4.286-8.668-4.186-2.231.076-4.195 1.03-5.659 2.032l.01.013-.01.003c-5.84 2.428-8.575-.331-8.62-.377z"/>
	</symbol>
	<symbol id="icon-tv" viewBox="0 0 120 120" fill-rule="evenodd" clip-rule="evenodd" stroke-linecap="round" stroke-linejoin="round" stroke-miterlimit="1.5">
		<path d="M116 43.716c0-5.502-4.467-9.969-9.969-9.969H13.969C8.467 33.747 4 38.214 4 43.716v63.134c0 5.501 4.467 9.968 9.969 9.968h92.062c5.502 0 9.969-4.467 9.969-9.968V43.716zm-8.029 4.1a5.284 5.284 0 00-5.281-5.281H18.006a5.283 5.283 0 00-5.28 5.281v55.449a5.283 5.283 0 005.28 5.281h84.684a5.283 5.283 0 005.281-5.281V47.816z" fill="currentColor"/>
		<path d="M107.972 47.816a5.283 5.283 0 00-5.281-5.28H18.006a5.283 5.283 0 00-5.28 5.28v55.45a5.284 5.284 0 005.28 5.28h84.685a5.284 5.284 0 005.28-5.28v-55.45z" fill="currentColor" fill-opacity=".5"/>
		<path d="M71.952 30.761l15.787-18.987" fill="none" stroke="currentColor" stroke-width="7.32" transform="matrix(1.33211 0 0 1.32676 -26.363 -3.847)"/>
		<path d="M71.952 30.761l15.787-18.987" fill="none" stroke="currentColor" stroke-width="7.32" transform="matrix(-1.33211 0 0 1.32676 146.363 -3.847)"/>
	</symbol>

	<!-- Social icons -->
	<symbol id="icon-github" viewBox="0 0 33 33" fill="currentColor">
		<path d="M16.288 0C7.293 0 0 7.293 0 16.29c0 7.197 4.667 13.302 11.14 15.457.815.149 1.112-.354 1.112-.786 0-.386-.014-1.411-.022-2.77-4.531.984-5.487-2.184-5.487-2.184-.741-1.881-1.809-2.382-1.809-2.382-1.479-1.011.112-.991.112-.991 1.635.116 2.495 1.679 2.495 1.679 1.453 2.489 3.813 1.77 4.741 1.354.148-1.053.568-1.771 1.034-2.178-3.617-.411-7.42-1.809-7.42-8.051 0-1.778.635-3.232 1.677-4.371-.168-.412-.727-2.068.159-4.311 0 0 1.368-.438 4.48 1.67a15.602 15.602 0 014.078-.548c1.383.006 2.777.187 4.078.548 3.11-2.108 4.475-1.67 4.475-1.67.889 2.243.33 3.899.162 4.311 1.044 1.139 1.675 2.593 1.675 4.371 0 6.258-3.809 7.635-7.438 8.038.585.503 1.106 1.497 1.106 3.017 0 2.177-.02 3.934-.02 4.468 0 .436.293.943 1.12.784 6.468-2.159 11.131-8.26 11.131-15.455C32.579 7.293 25.285 0 16.288 0"/>
	</symbol>
	<symbol id="icon-soundcloud" viewBox="0 0 203 203" fill="currentColor">
		<path d="M101.02 63.414c-1.493 0-2.721 1.227-2.742 2.733l-1.121 56.037 1.123 20.338c.019 1.485 1.247 2.71 2.74 2.71 1.49 0 2.717-1.225 2.738-2.731v.023l1.219-20.34-1.22-56.04c-.02-1.502-1.247-2.73-2.736-2.73zm76.725 32.246c-3.408 0-6.66.69-9.621 1.93-1.981-22.418-20.78-40.005-43.711-40.005A44.458 44.458 0 00108.5 60.56c-1.88.727-2.377 1.474-2.395 2.925v78.95a3.005 3.005 0 002.686 2.94c.064.007 68.509.04 68.953.04 13.738 0 24.875-11.139 24.875-24.879 0-13.739-11.137-24.875-24.875-24.875zm-108.57 47.618v-.01l1.436-21.1-1.435-45.984c-.034-1.143-.934-2.037-2.047-2.037-1.118 0-2.018.893-2.05 2.037l-1.275 45.985 1.277 21.107c.03 1.129.93 2.024 2.048 2.024 1.113 0 2.008-.895 2.047-2.03v.008zm-18.652 2.024c.909 0 1.659-.74 1.703-1.688l1.67-21.454-1.67-41.058c-.044-.947-.794-1.688-1.703-1.688-.918 0-1.665.741-1.706 1.688l-1.478 41.058 1.48 21.461c.039.94.786 1.68 1.704 1.68zm33.475-68.688c-1.32 0-2.371 1.048-2.398 2.385l-1.07 43.175 1.07 20.773a2.394 2.394 0 002.398 2.37c1.312 0 2.36-1.046 2.39-2.383v.018l1.2-20.775-1.2-43.181c-.03-1.333-1.078-2.381-2.39-2.381zM18.09 143.899c.527 0 .952-.415 1.013-.99l2.145-20.764-2.143-21.553c-.063-.574-.488-.99-1.015-.99-.533 0-.96.417-1.013.99l-1.888 21.553 1.888 20.758c.053.58.48.997 1.013.997zm16.086 1.185c.72 0 1.303-.576 1.358-1.336l1.909-21.6-1.91-20.546c-.052-.758-.634-1.331-1.357-1.331-.73 0-1.312.575-1.358 1.34l-1.683 20.537 1.683 21.598c.046.762.628 1.338 1.358 1.338zm41.355.195c1.21 0 2.187-.972 2.22-2.211v.016l1.319-20.91-1.32-44.813c-.032-1.24-1.01-2.208-2.22-2.208-1.22 0-2.195.97-2.223 2.208l-1.173 44.813 1.175 20.904c.026 1.229 1.002 2.2 2.222 2.2zm16.996.082c1.39 0 2.54-1.148 2.565-2.556v.015-.015l1.083-20.623L95.092 70.8c-.023-1.41-1.174-2.555-2.565-2.555-1.395 0-2.546 1.146-2.565 2.557l-.97 51.36c0 .034.97 20.655.97 20.655.019 1.395 1.17 2.543 2.565 2.543zm-33.733-.101c1.01 0 1.833-.817 1.876-1.862l1.552-21.232-1.552-44.486c-.041-1.045-.866-1.861-1.876-1.861-1.02 0-1.843.819-1.877 1.863l-1.377 44.484 1.377 21.24c.034 1.035.857 1.854 1.877 1.854zM26.1 98.838c-.626 0-1.137.5-1.186 1.168l-1.784 22.14 1.784 21.42c.049.663.56 1.165 1.186 1.165.62 0 1.13-.502 1.186-1.164l2.026-21.42-2.026-22.145c-.056-.663-.565-1.164-1.186-1.164zm16.215-11.614c-.816 0-1.49.667-1.53 1.517l-1.581 33.416 1.582 21.596c.04.842.713 1.51 1.529 1.51.812 0 1.483-.668 1.53-1.516v.006l1.79-21.596-1.79-33.416c-.047-.85-.718-1.517-1.53-1.517zm-31.33 16.755c-.068-.482-.415-.816-.84-.816-.43 0-.783.343-.841.816l-1.988 18.16 1.988 17.762c.058.475.412.82.84.82.426 0 .773-.335.84-.816l2.263-17.765-2.261-18.161zm-8.316 6.138c-.423 0-.756.327-.812.792L.38 122.139l1.477 11.042c.056.464.389.789.812.789.408 0 .74-.321.807-.785v-.002.002l1.752-11.045-1.752-11.235c-.064-.463-.4-.788-.807-.788z"/>
	</symbol>
	<symbol id="icon-twitter" viewBox="0 0 250 250" fill="currentColor">
		<path d="M78.62 226.59c94.34 0 145.94-78.16 145.94-145.94 0-2.22 0-4.43-.15-6.63A104.356 104.356 0 00250 47.47a102.39 102.39 0 01-29.46 8.07 51.479 51.479 0 0022.55-28.37 102.806 102.806 0 01-32.57 12.45 51.359 51.359 0 00-37.399-16.168c-28.165 0-51.34 23.176-51.34 51.34 0 3.907.446 7.802 1.329 11.608A145.687 145.687 0 0117.4 32.81c-13.537 23.304-6.533 53.504 15.88 68.47A50.912 50.912 0 0110 94.86v.65c.007 24.323 17.308 45.464 41.15 50.28a51.222 51.222 0 01-23.16.88c6.703 20.842 26.031 35.209 47.92 35.62a102.944 102.944 0 01-63.7 22A104.461 104.461 0 010 203.55a145.228 145.228 0 0078.62 23"/>
	</symbol>
</svg>
